#!OML:ASF E:\motion texture\Top Level 1\Subject 1\Session 1\male.ASF
:FULLY-SPECIFIED
:DEGREES
191
root 6.14439 17.6595 4.09469 7.37918 -83.3244 0.408704
lowerback -1.68332 -2.57789 -1.76564
upperback -1.89713 -3.44542 3.07861
thorax -0.712026 -1.70639 4.11343
lowerneck -12.7852 -4.32466 -6.08755
upperneck 17.7361 -5.19579 1.86269
head 7.79486 -2.76447 1.05858
rclavicle 6.11263e-015 6.36111e-015
rhumerus -37.4131 -36.4412 -60.1778
rradius 11.7907
rwrist 42.2169
rhand -9.02817 -25.0222
rfingers 7.12502
rthumb 16.9193 -54.3052
lclavicle 6.11263e-015 6.36111e-015
lhumerus -18.6506 -6.87636 92.4263
lradius 39.1826
lwrist -15.1161
lhand -12.2273 17.2051
lfingers 7.12502
lthumb 13.838 46.7248
rfemur -31.385 2.2487 19.1168
rtibia 15.3172
rfoot 1.85138 -16.5656
rtoes 7.82907
lfemur 4.66035 -5.53062 -22.4694
ltibia 18.3468
lfoot -12.9876 -6.55979
ltoes -10.1935
192
root 5.97631 17.6732 4.09313 10.702 -82.9837 -2.89049
lowerback -1.72266 -2.60331 -1.24839
upperback -1.91429 -3.48816 3.27641
thorax -0.721991 -1.73414 4.02507
lowerneck -12.7628 -4.38322 -6.11527
upperneck 17.6159 -5.23724 1.70904
head 7.74998 -2.79858 1.00936
rclavicle -2.8625e-014 2.54444e-014
rhumerus -38.7449 -37.04 -58.5926
rradius 11.631
rwrist 43.4486
rhand -8.74444 -25.0705
rfingers 7.12502
rthumb 17.1924 -54.3299
lclavicle -2.8625e-014 2.54444e-014
lhumerus -19.2198 -5.44945 92.3608
lradius 37.4823
lwrist -15.6389
lhand -12.0923 17.2123
lfingers 7.12502
lthumb 13.9681 46.7231
rfemur -31.015 2.45598 19.5682
rtibia 15.2857
rfoot 3.36168 -16.4962
rtoes 10.3062
lfemur 4.62494 -5.77775 -21.9067
ltibia 19.2286
lfoot -12.4921 -6.72333
ltoes -11.2814
193
root 5.80661 17.6904 4.09187 13.9299 -82.6508 -6.08101
lowerback -1.79504 -2.62057 -0.716727
upperback -1.93503 -3.52181 3.48972
thorax -0.71828 -1.75807 3.94343
lowerneck -12.7442 -4.43468 -6.12897
upperneck 17.4831 -5.26419 1.51746
head 7.69958 -2.82811 0.947201
rclavicle 9.44227e-015 -5.56597e-015
rhumerus -39.8799 -37.2093 -57.3379
rradius 11.5593
rwrist 44.1735
rhand -8.47414 -25.1379
rfingers 7.12502
rthumb 17.4526 -54.3745
lclavicle 9.44227e-015 -5.56597e-015
lhumerus -19.7647 -3.8367 92.2296
lradius 35.6214
lwrist -16.2993
lhand -11.9924 17.219
lfingers 7.12502
lthumb 14.0644 46.7231
rfemur -30.6747 2.54843 20.116
rtibia 15.3582
rfoot 4.68387 -16.3082
rtoes 13.137
lfemur 4.48128 -5.97938 -21.2969
ltibia 20.2427
lfoot -11.885 -6.91739
ltoes -12.3506
194
root 5.63559 17.7106 4.09019 16.7103 -82.3341 -8.81545
lowerback -1.89466 -2.63046 -0.233712
upperback -1.95775 -3.54694 3.70275
thorax -0.699546 -1.77761 3.88784
lowerneck -12.7129 -4.47954 -6.13283
upperneck 17.3274 -5.28071 1.30332
head 7.63816 -2.85381 0.877883
rclavicle -2.55935e-014 6.12257e-014
rhumerus -40.822 -37.0229 -56.4019
rradius 11.5608
rwrist 44.4305
rhand -8.22175 -25.1556
rfingers 7.12502
rthumb 17.6955 -54.3704
lclavicle -2.55935e-014 6.12257e-014
lhumerus -20.2982 -2.0346 92.0133
lradius 33.6354
lwrist -17.0985
lhand -11.9033 17.2711
lfingers 7.12502
lthumb 14.1502 46.7692
rfemur -30.3363 2.58304 20.68
rtibia 15.5041
rfoot 5.7213 -16.0486
rtoes 16.0022
lfemur 4.225 -6.1243 -20.692
ltibia 21.4017
lfoot -11.136 -7.16819
ltoes -13.3636
195
root 5.46409 17.7327 4.08747 18.8159 -82.0494 -10.8695
lowerback -2.0017 -2.63453 0.151934
upperback -1.98834 -3.56417 3.89957
thorax -0.680746 -1.79215 3.87032
lowerneck -12.6589 -4.51632 -6.12662
upperneck 17.1504 -5.2885 1.07954
head 7.56485 -2.87535 0.805707
rclavicle 1.66482e-014 3.18055e-015
rhumerus -41.6103 -36.571 -55.7331
rradius 11.6197
rwrist 44.281
rhand -7.99378 -25.1084
rfingers 7.12502
rthumb 17.9148 -54.3033
lclavicle 1.66482e-014 3.18055e-015
lhumerus -20.8368 -0.0361231 91.6853
lradius 31.5576
lwrist -18.032
lhand -11.733 17.4647
lfingers 7.12502
lthumb 14.3143 46.9513
rfemur -29.9824 2.61358 21.1858
rtibia 15.6955
rfoot 6.41552 -15.8045
rtoes 18.549
lfemur 3.8489 -6.21839 -20.1415
ltibia 22.7131
lfoot -10.2147 -7.48126
ltoes -14.3095
196
root 5.29278 17.7559 4.08329 20.2137 -81.8 -12.2286
lowerback -2.087 -2.6374 0.42348
upperback -2.02146 -3.578 4.07214
thorax -0.671732 -1.80354 3.89313
lowerneck -12.6063 -4.54887 -6.10868
upperneck 16.9728 -5.29332 0.853596
head 7.49118 -2.89471 0.731512
rclavicle 7.10655e-015 -2.8625e-014
rhumerus -42.2689 -35.9409 -55.2846
rradius 11.7257
rwrist 43.7972
rhand -7.7858 -25
rfingers 7.12502
rthumb 18.1149 -54.1764
lclavicle 7.10655e-015 -2.8625e-014
lhumerus -21.3779 2.18263 91.2132
lradius 29.3956
lwrist -19.1655
lhand -11.5114 17.7372
lfingers 7.12502
lthumb 14.5278 47.2085
rfemur -29.5749 2.68698 21.5932
rtibia 15.8902
rfoot 6.71071 -15.644
rtoes 20.4885
lfemur 3.36447 -6.26843 -19.6611
ltibia 24.1777
lfoot -9.08662 -7.85896
ltoes -15.1282
